<?xml version="1.0" encoding="UTF-8" standalone="no"?>
<!-- Uploaded to: SVG Repo, www.svgrepo.com, Generator: SVG Repo Mixer Tools -->

<svg
   width="30"
   height="30.000006"
   viewBox="0 0 1.35 1.3500003"
   aria-hidden="true"
   role="img"
   class="iconify iconify--twemoji"
   preserveAspectRatio="xMidYMid"
   version="1.1"
   id="svg1"
   sodipodi:docname="path1.svg"
   inkscape:export-filename="nav_back.png"
   inkscape:export-xdpi="3.5999999"
   inkscape:export-ydpi="3.5999999"
   xmlns:inkscape="http://www.inkscape.org/namespaces/inkscape"
   xmlns:sodipodi="http://sodipodi.sourceforge.net/DTD/sodipodi-0.dtd"
   xmlns="http://www.w3.org/2000/svg"
   xmlns:svg="http://www.w3.org/2000/svg">
  <defs
     id="defs1" />
  <sodipodi:namedview
     id="namedview1"
     pagecolor="#ffffff"
     bordercolor="#000000"
     borderopacity="0.25"
     inkscape:showpageshadow="2"
     inkscape:pageopacity="0.0"
     inkscape:pagecheckerboard="0"
     inkscape:deskcolor="#d1d1d1" />
  <path
     fill="#31373d"
     d="M 1.2727377,0.11243741 H 0.46698322 V 0.04226792 c 0,-0.03920796 -0.0277007,-0.05378912 -0.061578,-0.03242342 L 0.0258303,0.24932791 c -0.03387724,0.0213657 -0.03451361,0.0572376 -0.0014224,0.0797278 l 0.38238239,0.25979957 c 0.0330912,0.0225652 0.0601555,0.008809 0.0601555,-0.0303993 V 0.48727438 H 1.2727377 a 0.07486684,0.07496741 0 0 0 0.074866,-0.0749674 V 0.18740483 A 0.07486684,0.07496741 0 0 0 1.2727377,0.11243741 Z M 8.996482e-4,0.98145965 c 0,-0.027251 0.0187167118,-0.0426193 0.0448078018,-0.0426193 h 0.10889383 c 0.058995,0 0.10664783,0.0397702 0.10664783,0.099969 0,0.03977 -0.0164333,0.066421 -0.0527437,0.083476 v 0.00112 c 0.0482142,0.00686 0.0862092,0.047154 0.0862092,0.096558 0,0.080102 -0.0533052,0.1232464 -0.13161591,0.1232464 H 0.04630639 c -0.0260911,0 -0.0453693023,-0.016455 -0.0453693023,-0.043144 V 0.98145965 Z M 0.08598582,1.0989711 h 0.0442463 c 0.0277756,0 0.0459308,-0.016455 0.0459308,-0.044831 0,-0.026726 -0.0210001,-0.040332 -0.0459308,-0.040332 h -0.0442463 z m 0,0.1692764 h 0.06693095 c 0.0306206,0 0.0533052,-0.017618 0.0533052,-0.049403 0,-0.026688 -0.0204012,-0.044868 -0.0601181,-0.044868 H 0.08598582 Z M 0.43100969,0.9791357 c 0.009658,-0.0260885 0.0318184,-0.0471172 0.0606796,-0.0471172 0.0301339,0 0.0510966,0.0198662 0.0606796,0.0471172 l 0.1112147,0.3089781 c 0.003444,0.00907 0.00453,0.017017 0.00453,0.021029 0,0.022152 -0.0181178,0.037484 -0.0391179,0.037484 -0.0238451,0 -0.035749,-0.012482 -0.0414388,-0.029537 l -0.016958,-0.053378 H 0.41289192 l -0.0170322,0.052814 c -0.005615,0.017618 -0.0175563,0.030099 -0.0408024,0.030099 -0.0227221,0 -0.0420003,-0.017017 -0.0420003,-0.03977 0,-0.00907 0.002845,-0.015893 0.003968,-0.018742 z m 0.006289,0.2061979 h 0.10777065 l -0.0527811,-0.164741 h -0.001085 z M 0.863216,0.93201865 c 0.0414012,0 0.12195808,0.013607 0.12195808,0.0635725 0,0.0204659 -0.0141868,0.0380837 -0.0351873,0.0380837 -0.023246,0 -0.0391557,-0.019866 -0.0867706,-0.019866 -0.0703374,0 -0.10664782,0.059637 -0.10664782,0.1289065 0,0.067583 0.0368719,0.1255329 0.10664782,0.1255329 0.0476152,0 0.0669313,-0.023877 0.0901771,-0.023877 0.0255292,0 0.0374336,0.025564 0.0374336,0.038608 0,0.054539 -0.0856477,0.067021 -0.12761052,0.067021 -0.11514521,0 -0.19510301,-0.091423 -0.19510301,-0.2090092 0,-0.118111 0.0793963,-0.20897176 0.19510265,-0.20897235 z m 0.1673648,0.0454306 c 0,-0.0232772 0.017032,-0.0420196 0.042562,-0.0420196 0.024369,0 0.042562,0.0158933 0.042562,0.0420196 V 1.1001331 l 0.139514,-0.1488103 c 0.00625,-0.006819 0.017032,-0.0158933 0.032904,-0.0158933 0.021562,0 0.041963,0.0164553 0.041963,0.0408949 0,0.0147309 -0.00906,0.0266882 -0.027776,0.0454306 L 1.1951381,1.1273837 1.3261552,1.2642368 C 1.3397431,1.2778807 1.35,1.290363 1.35,1.307418 c 0,0.026688 -0.021037,0.03917 -0.044283,0.03917 -0.016471,0 -0.027214,-0.00967 -0.043086,-0.026688 L 1.1157419,1.1608567 v 0.144837 c 0,0.022153 -0.017032,0.040895 -0.042562,0.040895 -0.024369,0 -0.042562,-0.015893 -0.042562,-0.040895 V 0.97744891 Z"
     id="path1"
     inkscape:export-filename="../Documents/path1.svg"
     inkscape:export-xdpi="3.5999999"
     inkscape:export-ydpi="3.5999999"
     style="stroke-width:0.0374585" />
</svg>
