<?xml version="1.0" encoding="UTF-8" standalone="no"?>
<!-- Uploaded to: SVG Repo, www.svgrepo.com, Generator: SVG Repo Mixer Tools -->

<svg
   width="800px"
   height="800px"
   viewBox="0 0 24 24"
   fill="none"
   version="1.1"
   id="svg2"
   sodipodi:docname="icon_female.svg"
   inkscape:version="1.3 (0e150ed, 2023-07-21)"
   xmlns:inkscape="http://www.inkscape.org/namespaces/inkscape"
   xmlns:sodipodi="http://sodipodi.sourceforge.net/DTD/sodipodi-0.dtd"
   xmlns="http://www.w3.org/2000/svg"
   xmlns:svg="http://www.w3.org/2000/svg">
  <defs
     id="defs2" />
  <sodipodi:namedview
     id="namedview2"
     pagecolor="#ffffff"
     bordercolor="#000000"
     borderopacity="0.25"
     inkscape:showpageshadow="2"
     inkscape:pageopacity="0.0"
     inkscape:pagecheckerboard="0"
     inkscape:deskcolor="#d1d1d1"
     inkscape:zoom="0.895"
     inkscape:cx="400"
     inkscape:cy="400.55866"
     inkscape:window-width="2560"
     inkscape:window-height="1326"
     inkscape:window-x="0"
     inkscape:window-y="25"
     inkscape:window-maximized="1"
     inkscape:current-layer="svg2" />
  <g
     id="g2"
     transform="matrix(1.5190105,0,0,1.5190105,-6.227254,-6.2284739)">
    <path
       fill-rule="evenodd"
       clip-rule="evenodd"
       d="m 7,9.94172 c 0.00137,-0.97729 0.29495,-1.93184 0.843,-2.741 0.55148,-0.81624 1.3323,-1.45092 2.244,-1.824 1.8671,-0.76498 4.0104,-0.34372 5.449,1.071 1.0556,1.04188 1.5836,2.50519 1.4364,3.98108 -0.1472,1.4759 -0.9538,2.8061 -2.1944,3.6189 C 13.9477,14.571 12.9812,14.8372 12,14.8127 10.6855,14.84 9.41385,14.3448 8.464,13.4357 7.52845,12.5137 7.00119,11.2553 7,9.94172 Z"
       stroke="#000000"
       stroke-width="1.5"
       stroke-linecap="round"
       stroke-linejoin="round"
       id="path1" />
    <path
       d="m 12.75,14.8127 c 0,-0.4142 -0.3358,-0.75 -0.75,-0.75 -0.4142,0 -0.75,0.3358 -0.75,0.75 z m -1.5,2.188 c 0,0.4143 0.3358,0.75 0.75,0.75 0.4142,0 0.75,-0.3357 0.75,-0.75 z m 2.75,0.75 c 0.4142,0 0.75,-0.3357 0.75,-0.75 0,-0.4142 -0.3358,-0.75 -0.75,-0.75 z m -2,-1.5 c -0.4142,0 -0.75,0.3358 -0.75,0.75 0,0.4143 0.3358,0.75 0.75,0.75 z m -0.75,2.75 c 0,0.4143 0.3358,0.75 0.75,0.75 0.4142,0 0.75,-0.3357 0.75,-0.75 z m 1.5,-2 c 0,-0.4142 -0.3358,-0.75 -0.75,-0.75 -0.4142,0 -0.75,0.3358 -0.75,0.75 z m -0.75,0.75 c 0.4142,0 0.75,-0.3357 0.75,-0.75 0,-0.4142 -0.3358,-0.75 -0.75,-0.75 z m -2,-1.5 c -0.41421,0 -0.75,0.3358 -0.75,0.75 0,0.4143 0.33579,0.75 0.75,0.75 z m 1.25,-1.438 v 2.188 h 1.5 v -2.188 z m 2.75,1.438 h -2 v 1.5 h 2 z m -1.25,2.75 v -2 h -1.5 v 2 z M 12,16.2507 h -2 v 1.5 h 2 z"
       fill="#000000"
       id="path2" />
  </g>
</svg>
