<?xml version="1.0" encoding="UTF-8" standalone="no"?>
<!-- Uploaded to: SVG Repo, www.svgrepo.com, Transformed by: SVG Repo Mixer Tools -->

<svg
   width="17.873119"
   height="18.297812"
   viewBox="0 0 0.53619358 0.54893434"
   fill="none"
   version="1.1"
   id="svg1"
   sodipodi:docname="icon_filter.svg"
   inkscape:version="1.3 (0e150ed, 2023-07-21)"
   xmlns:inkscape="http://www.inkscape.org/namespaces/inkscape"
   xmlns:sodipodi="http://sodipodi.sourceforge.net/DTD/sodipodi-0.dtd"
   xmlns="http://www.w3.org/2000/svg"
   xmlns:svg="http://www.w3.org/2000/svg">
  <defs
     id="defs1" />
  <sodipodi:namedview
     id="namedview1"
     pagecolor="#ffffff"
     bordercolor="#000000"
     borderopacity="0.25"
     inkscape:showpageshadow="2"
     inkscape:pageopacity="0.0"
     inkscape:pagecheckerboard="0"
     inkscape:deskcolor="#d1d1d1"
     inkscape:zoom="0.895"
     inkscape:cx="355.30726"
     inkscape:cy="344.69274"
     inkscape:window-width="1392"
     inkscape:window-height="1212"
     inkscape:window-x="24"
     inkscape:window-y="25"
     inkscape:window-maximized="0"
     inkscape:current-layer="svg1" />
  <g
     id="SVGRepo_bgCarrier"
     stroke-width="0"
     transform="translate(-1.3279064,-1.6392417)" />
  <g
     id="SVGRepo_tracerCarrier"
     stroke-linecap="round"
     stroke-linejoin="round"
     transform="translate(-1.3279064,-1.6392417)" />
  <g
     id="SVGRepo_iconCarrier"
     transform="matrix(0.02493804,0,0,0.02815772,-0.03115969,-0.06335318)">
    <path
       d="M 19,3 H 5 C 3.58579,3 2.87868,3 2.43934,3.4122 2,3.8244 2,4.48782 2,5.81466 V 6.50448 C 2,7.54232 2,8.06124 2.2596,8.49142 2.5192,8.9216 2.99347,9.18858 3.94202,9.72255 l 2.91302,1.63985 c 0.63642,0.3582 0.95463,0.5374 1.18247,0.7352 0.47448,0.4119 0.76657,0.8959 0.89893,1.4896 C 9,13.8722 9,14.2058 9,14.8729 v 2.6695 c 0,0.9096 0,1.3643 0.25192,1.7189 0.25193,0.3545 0.69936,0.5294 1.59428,0.8793 1.8786,0.7344 2.8179,1.1016 3.4859,0.6838 C 15,20.4066 15,19.4519 15,17.5424 v -2.6695 c 0,-0.6671 0,-1.0007 0.0636,-1.2857 0.1323,-0.5937 0.4244,-1.0777 0.8989,-1.4896 0.2278,-0.1978 0.546,-0.377 1.1825,-0.7352 L 20.058,9.72255 C 21.0065,9.18858 21.4808,8.9216 21.7404,8.49142 22,8.06124 22,7.54232 22,6.50448 V 5.81466 C 22,4.48782 22,3.8244 21.5607,3.4122 21.1213,3 20.4142,3 19,3 Z"
       stroke="#000000"
       stroke-width="1.5"
       id="path1" />
  </g>
</svg>
