<?xml version="1.0" encoding="UTF-8" standalone="no"?>
<!-- Uploaded to: SVG Repo, www.svgrepo.com, Generator: SVG Repo Mixer Tools -->

<svg
   width="18.000002"
   height="18"
   viewBox="0 -0.5 0.56250006 0.5625"
   fill="none"
   version="1.1"
   id="svg1"
   sodipodi:docname="icon_close.svg"
   inkscape:version="1.3 (0e150ed, 2023-07-21)"
   xmlns:inkscape="http://www.inkscape.org/namespaces/inkscape"
   xmlns:sodipodi="http://sodipodi.sourceforge.net/DTD/sodipodi-0.dtd"
   xmlns="http://www.w3.org/2000/svg"
   xmlns:svg="http://www.w3.org/2000/svg">
  <defs
     id="defs1" />
  <sodipodi:namedview
     id="namedview1"
     pagecolor="#ffffff"
     bordercolor="#000000"
     borderopacity="0.25"
     inkscape:showpageshadow="2"
     inkscape:pageopacity="0.0"
     inkscape:pagecheckerboard="0"
     inkscape:deskcolor="#d1d1d1"
     inkscape:zoom="17.312309"
     inkscape:cx="1.9061582"
     inkscape:cy="13.949613"
     inkscape:window-width="2560"
     inkscape:window-height="1326"
     inkscape:window-x="0"
     inkscape:window-y="25"
     inkscape:window-maximized="1"
     inkscape:current-layer="svg1" />
  <path
     d="m 0.0107447,-1.223025e-4 c -0.0143262,0.0143267225 -0.0143262,0.0375506225 0,0.0518772725 0.0143262,0.01432673 0.03755408,0.01432673 0.05188028,0 z M 0.30718921,-0.19281076 c 0.0143267,-0.0143267 0.0143267,-0.0375506 0,-0.0518773 -0.0143267,-0.0143266 -0.0375506,-0.0143266 -0.0518773,0 z m -0.0518773,-0.0518773 c -0.0143267,0.0143266 -0.0143267,0.0375506 0,0.0518773 0.0143267,0.0143267 0.0375506,0.0143267 0.0518773,0 z M 0.5517549,-0.43737505 c 0.0143267,-0.0143262 0.0143267,-0.037554 0,-0.0518803 -0.0143267,-0.0143262 -0.0375506,-0.0143262 -0.0518773,0 z m -0.24456574,0.19268701 c -0.0143267,-0.0143266 -0.0375506,-0.0143266 -0.0518774,0 -0.0143267,0.0143266 -0.0143267,0.0375506 0,0.0518773 z m 0.19268845,0.29644301 c 0.0143267,0.01432673 0.0375506,0.01432673 0.0518774,0 0.0143267,-0.01432665 0.0143267,-0.03755062 0,-0.0518773475 z M 0.25531192,-0.19281076 c 0.0143267,0.0143267 0.0375506,0.0143267 0.0518773,0 0.0143267,-0.0143267 0.0143267,-0.0375506 0,-0.0518773 z m -0.192687,-0.2964445 c -0.0143262,-0.0143262 -0.03755407,-0.0143262 -0.05188027,0 -0.0143262,0.0143262 -0.0143262,0.037554 0,0.0518803 z m 0,0.54101023 0.24456429,-0.24456573 -0.0518773,-0.0518773 -0.24456722,0.2445657375 z m 0.24456429,-0.24456573 0.24456573,-0.24456429 -0.0518774,-0.0518803 -0.24456574,0.24456722 z m -0.0518773,0 L 0.4998776,0.05175497 0.55175495,-1.223775e-4 0.30718922,-0.24468812 Z m 0.0518773,-0.0518773 -0.24456429,-0.24456722 -0.05188027,0.0518803 0.24456722,0.24456429 z"
     fill="#000000"
     id="path1"
     style="stroke-width:0.0489131" />
</svg>
