<?xml version="1.0" encoding="UTF-8" standalone="no"?>
<!-- Uploaded to: SVG Repo, www.svgrepo.com, Generator: SVG Repo Mixer Tools -->

<svg
   width="800px"
   height="800px"
   viewBox="0 0 24 24"
   fill="none"
   version="1.1"
   id="svg2"
   sodipodi:docname="icon_male.svg"
   inkscape:version="1.3 (0e150ed, 2023-07-21)"
   xmlns:inkscape="http://www.inkscape.org/namespaces/inkscape"
   xmlns:sodipodi="http://sodipodi.sourceforge.net/DTD/sodipodi-0.dtd"
   xmlns="http://www.w3.org/2000/svg"
   xmlns:svg="http://www.w3.org/2000/svg">
  <defs
     id="defs2" />
  <sodipodi:namedview
     id="namedview2"
     pagecolor="#ffffff"
     bordercolor="#000000"
     borderopacity="0.25"
     inkscape:showpageshadow="2"
     inkscape:pageopacity="0.0"
     inkscape:pagecheckerboard="0"
     inkscape:deskcolor="#d1d1d1"
     inkscape:zoom="0.895"
     inkscape:cx="400"
     inkscape:cy="400.55866"
     inkscape:window-width="2560"
     inkscape:window-height="1326"
     inkscape:window-x="0"
     inkscape:window-y="25"
     inkscape:window-maximized="1"
     inkscape:current-layer="svg2" />
  <g
     id="g2"
     transform="matrix(1.0698475,0,0,1.0698475,-1.6425706,-0.68705467)">
    <path
       fill-rule="evenodd"
       clip-rule="evenodd"
       d="m 17.566008,19.155844 c -1.1852,1.181776 -2.696456,1.982185 -4.339914,2.298307 -1.65613,0.320574 -3.3703128,0.143676 -4.925921,-0.508604 C 5.1129742,19.61119 3.0277674,16.505625 2.9988095,13.050544 2.9821471,10.510608 4.1147409,8.0994153 6.0801262,6.4905321 8.0455286,4.8816318 10.6329,4.2475896 13.119579,4.7655777 c 1.639005,0.3718116 3.131595,1.2198612 4.290081,2.4375305 1.624792,1.558725 2.564938,3.6981148 2.614429,5.9491568 0.01627,2.24933 -0.869079,4.411667 -2.458081,6.003579 z"
       stroke="#000000"
       stroke-width="2.56871"
       stroke-linecap="round"
       stroke-linejoin="round"
       id="path1" />
    <path
       d="m 16.501537,6.294968 c -0.501583,0.5015655 -0.501583,1.3147835 0,1.816349 0.501582,0.5015655 1.314835,0.5015655 1.816417,0 z m 6.887556,-3.2548927 c 0.501583,-0.5015826 0.501583,-1.3147835 0,-1.816349 -0.501582,-0.50158262 -1.314663,-0.50158262 -1.816246,0 z M 18.475844,0.82335069 c -0.709305,-0.004281 -1.287778,0.56725581 -1.292059,1.27657831 -0.0043,0.7093224 0.56717,1.2877949 1.276476,1.2920761 z m 3.99742,2.59286871 c 0.709305,0.00428 1.287778,-0.5672558 1.292059,-1.2765782 0.0043,-0.7093053 -0.567341,-1.28779501 -1.276647,-1.29207618 z M 23.765323,2.1241433 C 23.761042,1.414838 23.182569,0.84328384 22.473264,0.84756502 21.763959,0.85184619 21.192336,1.4303359 21.196617,2.1396412 Z m -2.54456,4.0284328 c 0.0043,0.7093053 0.582925,1.2808594 1.29223,1.2765782 0.709306,-0.00428 1.280757,-0.5827708 1.276476,-1.2920932 z M 18.317954,8.111317 23.389093,3.0400753 21.572847,1.2237263 16.501537,6.294968 Z m 0.142307,-4.7193119 4.013003,0.024214 0.01541,-2.56865438 -4.012832,-0.0242143 z m 2.736356,-1.2523639 0.02415,4.0129349 2.568706,-0.015515 -0.02415,-4.0129178 z"
       fill="#000000"
       id="path2"
       style="stroke-width:1.71247" />
  </g>
</svg>
